<svg width="19" height="16" viewBox="0 0 19 16" fill="none" xmlns="http://www.w3.org/2000/svg">
<path d="M9.62006 3.5531L2.93458 9.06459C2.93458 9.07236 2.93263 9.08381 2.92872 9.09941C2.92489 9.11488 2.92285 9.12612 2.92285 9.1341V14.7151C2.92285 14.9166 2.99652 15.0912 3.14382 15.2383C3.29108 15.3854 3.46547 15.4594 3.66701 15.4594H8.13166V10.9945H11.1085V15.4596H15.5731C15.7746 15.4596 15.9492 15.3857 16.0963 15.2383C16.2436 15.0914 16.3175 14.9166 16.3175 14.7151V9.1341C16.3175 9.10315 16.3133 9.07978 16.3058 9.06459L9.62006 3.5531Z" fill="white"/>
<path d="M18.8635 7.80875L16.3173 5.69261V0.948701C16.3173 0.84025 16.2824 0.751063 16.2125 0.681261C16.1431 0.61154 16.0539 0.57668 15.9452 0.57668H13.7128C13.6043 0.57668 13.5151 0.61154 13.4453 0.681261C13.3756 0.751063 13.3408 0.840291 13.3408 0.948701V3.21597L10.5038 0.843956C10.256 0.64241 9.96144 0.541656 9.62033 0.541656C9.27926 0.541656 8.98469 0.64241 8.73668 0.843956L0.376516 7.80875C0.299017 7.87065 0.256541 7.95397 0.24864 8.05863C0.24078 8.16322 0.267862 8.25456 0.329968 8.33202L1.05083 9.19245C1.11294 9.26217 1.19423 9.30481 1.29502 9.32041C1.38808 9.32823 1.48113 9.30102 1.57419 9.23904L9.62008 2.52996L17.6661 9.239C17.7282 9.29308 17.8094 9.32008 17.9102 9.32008H17.9452C18.0458 9.30477 18.1269 9.26185 18.1894 9.19229L18.9103 8.33198C18.9723 8.25436 18.9995 8.16318 18.9914 8.05847C18.9835 7.95409 18.9408 7.87077 18.8635 7.80875Z" fill="white"/>
</svg>
