<svg width="20" height="17" viewBox="0 0 20 17" fill="none" xmlns="http://www.w3.org/2000/svg">
<path d="M9.61963 10.4849C9.96588 10.4849 10.2466 10.2042 10.2466 9.85791C10.2466 9.51165 9.96588 9.23096 9.61963 9.23096C9.27337 9.23096 8.99268 9.51165 8.99268 9.85791C8.99268 10.2042 9.27337 10.4849 9.61963 10.4849Z" fill="white"/>
<path d="M17.7702 8.18394L11.5007 9.97702C11.5007 10.4759 11.3025 10.9543 10.9498 11.307C10.5971 11.6597 10.1187 11.8579 9.61983 11.8579C9.12099 11.8579 8.64259 11.6597 8.28986 11.307C7.93714 10.9543 7.73898 10.4759 7.73898 9.97702L1.46948 8.18394L0.215576 7.82031V14.8735C0.215576 15.3723 0.413737 15.8507 0.766464 16.2035C1.11919 16.5562 1.59759 16.7543 2.09643 16.7543H17.1432C17.6421 16.7543 18.1205 16.5562 18.4732 16.2035C18.8259 15.8507 19.0241 15.3723 19.0241 14.8735V7.82031L17.7702 8.18394Z" fill="white"/>
<path d="M17.1432 2.96147H13.3815V2.33452C13.3815 1.83569 13.1834 1.35729 12.8306 1.00456C12.4779 0.651835 11.9995 0.453674 11.5007 0.453674H7.73898C7.24014 0.453674 6.76174 0.651835 6.40901 1.00456C6.05629 1.35729 5.85813 1.83569 5.85813 2.33452V2.96147H2.09643C1.59759 2.96147 1.11919 3.15963 0.766464 3.51236C0.413737 3.86509 0.215576 4.34349 0.215576 4.84232V6.51628L1.46948 6.87991L8.09007 8.76076C8.26412 8.51744 8.49371 8.31915 8.75976 8.18235C9.02581 8.04555 9.32066 7.97419 9.61983 7.97419C9.91899 7.97419 10.2138 8.04555 10.4799 8.18235C10.7459 8.31915 10.9755 8.51744 11.1496 8.76076L17.7702 6.87991L19.0241 6.51628V4.84232C19.0241 4.34349 18.8259 3.86509 18.4732 3.51236C18.1205 3.15963 17.6421 2.96147 17.1432 2.96147ZM7.11203 2.33452C7.11203 2.16825 7.17808 2.00878 7.29566 1.8912C7.41323 1.77363 7.5727 1.70757 7.73898 1.70757H11.5007C11.667 1.70757 11.8264 1.77363 11.944 1.8912C12.0616 2.00878 12.1276 2.16825 12.1276 2.33452V2.96147H7.11203V2.33452Z" fill="white"/>
</svg>
