<svg width="17" height="17" viewBox="0 0 17 17" fill="none" xmlns="http://www.w3.org/2000/svg">
<path fill-rule="evenodd" clip-rule="evenodd" d="M11.1091 16.8117H2.2201C1.65558 16.8117 1.11352 16.5871 0.713944 16.1883C0.315144 15.7888 0.0905762 15.2467 0.0905762 14.6822V2.29227C0.0905762 1.72775 0.315144 1.18569 0.713944 0.786119C1.11352 0.387318 1.65558 0.16275 2.2201 0.16275H8.86884C9.22815 0.16275 9.57274 0.305234 9.82674 0.560002L13.2448 3.97807C13.4996 4.23207 13.6421 4.57666 13.6421 4.93597V8.15038C13.1101 8.07217 12.5688 8.08533 12.0407 8.1891C11.5954 8.27583 11.2237 8.58016 11.0495 8.99909L10.9178 9.31658C10.7444 9.29413 10.5763 9.27244 10.5763 9.27244C10.1264 9.21359 9.67728 9.38318 9.37915 9.72545C8.9757 10.1885 8.66518 10.7252 8.46617 11.3067C8.31904 11.7357 8.39647 12.2096 8.67215 12.5697L8.882 12.8431C8.77592 12.9817 8.67215 13.1164 8.67215 13.1164C8.39647 13.4765 8.31904 13.9504 8.46617 14.3794C8.66518 14.961 8.9757 15.4976 9.37915 15.9607C9.67728 16.303 10.1264 16.4725 10.5763 16.4137L10.9178 16.3696C10.9844 16.5306 11.0495 16.687 11.0495 16.687C11.0673 16.7296 11.0874 16.7714 11.1091 16.8117ZM3.38165 10.6168H6.86632C7.18691 10.6168 7.4471 10.3566 7.4471 10.036C7.4471 9.71538 7.18691 9.4552 6.86632 9.4552H3.38165C3.06106 9.4552 2.80087 9.71538 2.80087 10.036C2.80087 10.3566 3.06106 10.6168 3.38165 10.6168ZM8.80224 1.5179V4.2282C8.80224 4.65565 9.14916 5.00257 9.57661 5.00257H12.2869L8.80224 1.5179ZM3.38165 7.90646H9.57661C9.8972 7.90646 10.1574 7.64627 10.1574 7.32568C10.1574 7.00509 9.8972 6.7449 9.57661 6.7449H3.38165C3.06106 6.7449 2.80087 7.00509 2.80087 7.32568C2.80087 7.64627 3.06106 7.90646 3.38165 7.90646ZM3.38165 13.327H6.86632C7.18691 13.327 7.4471 13.0669 7.4471 12.7463C7.4471 12.4257 7.18691 12.1655 6.86632 12.1655H3.38165C3.06106 12.1655 2.80087 12.4257 2.80087 12.7463C2.80087 13.0669 3.06106 13.327 3.38165 13.327Z" fill="white"/>
<path fill-rule="evenodd" clip-rule="evenodd" d="M14.1425 9.29568C14.1425 9.29568 14.4174 9.95776 14.4166 9.95776C14.5211 10.0104 14.6226 10.0693 14.7209 10.1328L15.4318 10.0398C15.6238 10.0151 15.8166 10.0879 15.9444 10.2342C16.282 10.6214 16.5415 11.0713 16.7087 11.5576C16.7714 11.7411 16.7381 11.9448 16.6197 12.0989C16.6197 12.0989 16.1845 12.6681 16.1845 12.6673C16.1907 12.7842 16.1907 12.9019 16.1845 13.0181L16.6197 13.5872C16.7381 13.7413 16.7714 13.945 16.7087 14.1285C16.5415 14.6148 16.282 15.0647 15.9444 15.4519C15.8166 15.5983 15.6238 15.6711 15.4318 15.6463C15.4318 15.6463 14.7209 15.5534 14.7217 15.5526C14.6233 15.6169 14.5211 15.6757 14.4174 15.7284L14.1425 16.3905C14.0681 16.5701 13.9086 16.7002 13.7181 16.7374C13.2132 16.8365 12.6944 16.8365 12.1895 16.7374C11.999 16.7002 11.8395 16.5701 11.7651 16.3905C11.7651 16.3905 11.4902 15.7284 11.491 15.7284C11.3865 15.6757 11.2843 15.6169 11.1867 15.5534L10.4758 15.6463C10.283 15.6711 10.0909 15.5983 9.96317 15.4519C9.62477 15.0647 9.36536 14.6148 9.19887 14.1285C9.13615 13.945 9.16945 13.7413 9.28715 13.5872C9.28715 13.5872 9.72312 13.0181 9.72312 13.0189C9.71693 12.9019 9.71693 12.7842 9.72312 12.6681L9.28715 12.0989C9.16945 11.9448 9.13615 11.7411 9.19887 11.5576C9.36536 11.0713 9.62477 10.6214 9.96317 10.2342C10.0909 10.0879 10.283 10.0151 10.4758 10.0398C10.4758 10.0398 11.1867 10.1328 11.1859 10.1335C11.2843 10.0693 11.3857 10.0104 11.4902 9.95776L11.7651 9.29568C11.8395 9.11602 11.999 8.98593 12.1895 8.94876C12.6944 8.84964 13.2132 8.84964 13.7181 8.94876C13.9086 8.98593 14.0681 9.11602 14.1425 9.29568ZM12.9538 11.6815C12.3126 11.6815 11.7922 12.2019 11.7922 12.8431C11.7922 13.4842 12.3126 14.0046 12.9538 14.0046C13.595 14.0046 14.1153 13.4842 14.1153 12.8431C14.1153 12.2019 13.595 11.6815 12.9538 11.6815Z" fill="white"/>
</svg>
