<svg width="15" height="17" viewBox="0 0 15 17" fill="none" xmlns="http://www.w3.org/2000/svg">
<path d="M7.51468 8.18258C8.61646 8.18258 9.57051 7.78742 10.35 7.00777C11.1296 6.22824 11.5247 5.27444 11.5247 4.17254C11.5247 3.07101 11.1296 2.11709 10.3499 1.33731C9.57026 0.557911 8.61633 0.16275 7.51468 0.16275C6.41278 0.16275 5.45898 0.557911 4.67945 1.33744C3.89993 2.11696 3.50464 3.07089 3.50464 4.17254C3.50464 5.27444 3.89993 6.22837 4.67958 7.00789C5.45923 7.78729 6.41316 8.18258 7.51468 8.18258Z" fill="white"/>
<path d="M14.5314 12.9649C14.5089 12.6405 14.4634 12.2866 14.3965 11.9129C14.3289 11.5364 14.2419 11.1805 14.1377 10.8552C14.0301 10.519 13.8838 10.187 13.7029 9.86877C13.5152 9.53852 13.2947 9.25095 13.0473 9.01431C12.7885 8.76674 12.4717 8.5677 12.1054 8.42252C11.7403 8.27809 11.3358 8.20493 10.903 8.20493C10.7331 8.20493 10.5687 8.27466 10.2513 8.48133C10.0559 8.60873 9.8274 8.75607 9.57235 8.91904C9.35425 9.058 9.0588 9.1882 8.69387 9.30607C8.33783 9.42128 7.97633 9.47971 7.61953 9.47971C7.26273 9.47971 6.90136 9.42128 6.54494 9.30607C6.18039 9.18832 5.88494 9.05813 5.6671 8.91917C5.41445 8.75772 5.18582 8.61038 4.98754 8.4812C4.67049 8.27454 4.506 8.2048 4.33605 8.2048C3.90316 8.2048 3.49873 8.27809 3.1338 8.42264C2.76772 8.56757 2.45081 8.76662 2.19181 9.01443C1.9445 9.2512 1.72387 9.53865 1.53639 9.86877C1.35564 10.187 1.20931 10.5189 1.10159 10.8553C0.997564 11.1806 0.910555 11.5364 0.84298 11.9129C0.77604 12.2861 0.730567 12.6401 0.708084 12.9653C0.685983 13.2839 0.674805 13.6145 0.674805 13.9484C0.674805 14.8175 0.951075 15.5211 1.49587 16.0399C2.03393 16.552 2.74588 16.8117 3.61165 16.8117H11.6282C12.4939 16.8117 13.2056 16.5521 13.7438 16.0399C14.2887 15.5214 14.565 14.8178 14.565 13.9483C14.5649 13.6128 14.5536 13.2819 14.5314 12.9649Z" fill="white"/>
</svg>
